<?xml version="1.0" encoding="iso-8859-1"?>
<!-- Uploaded to: SVG Repo, www.svgrepo.com, Generator: SVG Repo Mixer Tools -->
<!DOCTYPE svg PUBLIC "-//W3C//DTD SVG 1.1//EN" "http://www.w3.org/Graphics/SVG/1.1/DTD/svg11.dtd">
<svg fill="#000000" height="800px" width="800px" version="1.1" id="Capa_1" xmlns="http://www.w3.org/2000/svg" xmlns:xlink="http://www.w3.org/1999/xlink" 
	 viewBox="0 0 493.219 493.219" xml:space="preserve">
<g>
	<path d="M399.424,113.414c26.466,0,47.998-21.532,47.998-47.998c0-26.468-21.532-48-47.998-48c-26.466,0-47.998,21.532-47.998,48
		C351.426,91.882,372.957,113.414,399.424,113.414z M399.424,25.916c21.779,0,39.498,17.72,39.498,39.5
		c0,21.779-17.719,39.498-39.498,39.498s-39.498-17.719-39.498-39.498C359.926,43.636,377.645,25.916,399.424,25.916z"/>
	<path d="M120.259,22.544c0.341,0,0.688-0.041,1.034-0.128L150.6,15.09c2.277-0.569,3.662-2.877,3.092-5.153
		c-0.569-2.278-2.874-3.661-5.154-3.093l-29.307,7.326c-2.277,0.569-3.662,2.877-3.092,5.153
		C116.623,21.255,118.355,22.544,120.259,22.544z"/>
	<path d="M119.232,52.945l29.307,7.326c0.346,0.087,0.693,0.128,1.034,0.128c1.904,0,3.637-1.289,4.12-3.221
		c0.569-2.276-0.815-4.584-3.092-5.153l-29.307-7.326c-2.279-0.574-4.585,0.814-5.154,3.093
		C115.57,50.068,116.955,52.376,119.232,52.945z"/>
	<path d="M59.963,66.936l195.25,85.021c0.152,12.266,9.636,22.671,22.106,23.709l74.836,6.226v106.408
		c0,13.37,5.619,25.988,15.47,34.949l0.001,138.174c0,17.492,14.198,31.727,31.674,31.794c0.011,0,0.02,0.003,0.031,0.003
		c0.006,0,0.012-0.002,0.019-0.002c0.025,0,0.049,0.002,0.074,0.002c17.533,0,31.798-14.264,31.798-31.797V323.25
		c9.851-8.961,15.47-21.58,15.47-34.951V164.357c0-26.063-21.204-47.268-47.268-47.268c-14.123,0-27.604,6.432-36.543,17.307
		l-81.564-6.784c-0.671-0.056-1.352-0.084-2.022-0.084c-10.222,0-19.164,6.573-22.591,15.806L79.602,66.285
		c6.546-2.155,11.292-8.304,11.326-15.553h15.374c2.347,0,4.25-1.902,4.25-4.25V20.635c0-2.348-1.903-4.25-4.25-4.25H90.928
		C90.885,7.343,83.521,0,74.47,0H62.259c-9.077,0-16.462,7.385-16.462,16.463v34.191C45.797,58.949,51.972,65.813,59.963,66.936z
		 M91.013,24.885h11.039v17.348H91.013V24.885z M54.297,50.654V16.463c0-4.391,3.572-7.963,7.962-7.963H74.47
		c4.39,0,7.962,3.572,7.962,7.963v34.191c0,4.39-3.572,7.961-7.962,7.961H62.259C57.869,58.615,54.297,55.044,54.297,50.654z
		 M263.763,150.345c0.668-8.028,7.49-14.316,15.531-14.316c0.436,0,0.879,0.019,1.318,0.055l114.129,9.492
		c8.577,0.714,14.975,8.274,14.262,16.852c-0.668,8.027-7.493,14.316-15.536,14.316c-0.436,0-0.878-0.019-1.315-0.055
		l-114.128-9.494C269.446,166.48,263.049,158.922,263.763,150.345z M422.722,461.422c0,11.426-8.272,20.951-19.141,22.918v-94.285
		c0-2.348-1.903-4.25-4.25-4.25c-2.347,0-4.25,1.902-4.25,4.25v94.252c-10.777-2.041-18.955-11.523-18.955-22.885l-0.001-158.859
		c0-12.846,10.452-23.297,23.299-23.297c12.847,0,23.298,10.451,23.298,23.297V461.422z M438.191,288.299
		c0,8.031-2.475,15.73-6.97,22.167v-7.903c0-17.533-14.265-31.797-31.798-31.797c-17.534,0-31.799,14.264-31.799,31.797v7.902
		c-4.495-6.437-6.97-14.136-6.97-22.166V182.598l30.792,2.561c0.67,0.056,1.35,0.084,2.02,0.084
		c12.429,0,22.974-9.713,24.006-22.112c1.101-13.248-8.78-24.923-22.028-26.026l-21.646-1.8c7.024-6.172,16.145-9.715,25.624-9.715
		c21.376,0,38.768,17.391,38.768,38.768V288.299z"/>
	<path d="M399.331,340.805c-2.347,0-4.25,1.902-4.25,4.25v28c0,2.348,1.903,4.25,4.25,4.25c2.347,0,4.25-1.902,4.25-4.25v-28
		C403.581,342.707,401.678,340.805,399.331,340.805z"/>
	<path d="M423.238,192.805c-2.347,0-4.25,1.902-4.25,4.25v53c0,2.348,1.903,4.25,4.25,4.25c2.347,0,4.25-1.902,4.25-4.25v-53
		C427.488,194.707,425.586,192.805,423.238,192.805z"/>
</g>
</svg>