<?xml version="1.0" encoding="iso-8859-1"?>
<!-- Uploaded to: SVG Repo, www.svgrepo.com, Generator: SVG Repo Mixer Tools -->
<svg fill="#000000" version="1.1" id="Layer_1" xmlns="http://www.w3.org/2000/svg" xmlns:xlink="http://www.w3.org/1999/xlink" 
	 viewBox="0 0 512 512" xml:space="preserve">
<g>
	<g>
		<path d="M256.001,61.217c-85.428,0-154.929,69.501-154.929,154.929s69.501,154.929,154.929,154.929S410.93,301.575,410.93,216.146
			S341.429,61.217,256.001,61.217z M256.001,337.684c-67.015,0-121.538-54.521-121.538-121.538S188.985,94.609,256.001,94.609
			c67.016,0,121.538,54.521,121.538,121.538C377.539,283.163,323.017,337.684,256.001,337.684z"/>
	</g>
</g>
<g>
	<g>
		<path d="M371.284,398.901c60.564-38.34,100.864-105.926,100.864-182.755C472.148,96.963,375.184,0,256.001,0
			C136.818,0,39.854,96.963,39.854,216.146c0,76.829,40.3,144.415,100.863,182.755H7.366v16.696
			c0,53.157,43.246,96.403,96.403,96.403h304.464c53.157,0,96.402-43.246,96.402-96.403v-16.696H371.284z M73.246,216.146
			c0-100.772,81.985-182.755,182.755-182.755c100.772,0,182.755,81.983,182.755,182.755s-81.983,182.755-182.755,182.755
			C155.23,398.901,73.246,316.918,73.246,216.146z M408.234,478.609H103.769c-28.966,0-53.431-19.649-60.767-46.316h425.997
			C461.663,458.96,437.199,478.609,408.234,478.609z"/>
	</g>
</g>
<g>
	<g>
		
			<rect x="139.435" y="172.529" transform="matrix(0.4472 -0.8944 0.8944 0.4472 -64.655 273.8342)" width="99.548" height="33.39"/>
	</g>
</g>
<g>
	<g>
		
			<rect x="165.31" y="189.222" transform="matrix(0.4472 -0.8944 0.8944 0.4472 -54.9652 322.8994)" width="136.878" height="33.39"/>
	</g>
</g>
</svg>