<?xml version="1.0" encoding="iso-8859-1"?>
<!-- Uploaded to: SVG Repo, www.svgrepo.com, Generator: SVG Repo Mixer Tools -->
<svg fill="#000000" height="800px" width="800px" version="1.1" id="Layer_1" xmlns="http://www.w3.org/2000/svg" xmlns:xlink="http://www.w3.org/1999/xlink" 
	 viewBox="0 0 512 512" xml:space="preserve">
<g transform="translate(1 1)">
	<g>
		<path d="M424.498,297.667c-5.12,0-8.533,3.413-8.533,8.533s3.413,8.533,8.533,8.533c23.893,0,42.667,18.773,42.667,42.667
			s-18.773,42.667-42.667,42.667s-42.667-18.773-42.667-42.667s-18.773-42.667-42.667-42.667c-6.987,0-13.022-4.258-15.654-10.304
			L281.138,62.147c-1.707-6.827-7.68-11.947-14.507-11.947h-29.867V20.333C236.764,8.387,227.378-1,215.431-1h-58.88
			c-11.947,0-21.333,9.387-21.333,21.333V50.2h-29.013c-6.827,0-12.8,5.12-14.507,11.947L71.464,179.345l-0.067,0.038l0.046,0.081
			L25.991,442.733c-0.853,4.267,0.853,8.533,3.413,11.947c2.56,3.413,6.827,5.12,11.093,5.12h69.973v29.867
			c0,11.947,9.387,21.333,21.333,21.333h110.08c11.947,0,21.333-9.387,22.187-21.333V459.8h69.12c4.267,0,8.533-1.707,11.093-5.12
			c3.413-3.413,4.267-7.68,3.413-11.947l-19.735-112.842c3.514,1.231,7.281,1.909,11.201,1.909c14.507,0,25.6,11.093,25.6,25.6
			c0,33.28,26.453,59.733,59.733,59.733s59.733-26.453,59.733-59.733S457.778,297.667,424.498,297.667z M139.645,442.733
			l171.607-107.254l5.667,32.811l-124.034,74.444H139.645z M115.289,373.01l-56.333-21.124l4.293-24.53l89.562,23.888
			L115.289,373.01z M96.206,384.08l-47.729,27.688l7.486-42.779L96.206,384.08z M173.668,339.143L66.202,310.48l6.481-37.035
			l145.424,39.919L173.668,339.143z M238.815,301.35L75.638,256.558l5.884-33.625l202.123,52.41L238.815,301.35z M290.463,215.122
			l-53.396,30.511l-38.795-10.06l86.529-53.236L290.463,215.122z M293.553,233.012l4.931,28.547l-37.757-9.79L293.553,233.012z
			 M175.359,229.633l-43.255-11.216l145.138-79.841l4.43,25.649L175.359,229.633z M108.038,212.177l-23.564-6.11l2.811-16.061
			L268.436,87.599l5.732,33.188L108.038,212.177z M153.138,20.333c0-2.56,1.707-4.267,4.267-4.267h58.88
			c2.56,0,4.267,1.707,4.267,4.267V50.2h-67.413V20.333z M108.764,67.267h26.453h44.939l-79.324,45.327L108.764,67.267z
			 M97.094,133.954l0.185,0.325l117.275-67.012h22.21h0.853h27.307l0.427,2.472l-174.259,98.51L97.094,133.954z M45,431.635
			l0.817,1.408l256.578-148.845l2.724,15.768c0.16,2.376,0.566,4.686,1.193,6.907l1.804,10.442L107.443,442.733H43.058L45,431.635z
			 M245.298,489.667c0,2.56-1.707,4.267-4.267,4.267h-110.08c-2.56,0-4.267-1.707-4.267-4.267V459.8h118.613V489.667z
			 M264.071,442.733h-38.023l93.986-56.409l9.743,56.409H264.071z"/>
	</g>
</g>
</svg>